<svg width="1050" height="1050" viewBox="0 0 1050 1050" fill="none" xmlns="http://www.w3.org/2000/svg">
  <rect width="1050" height="1050" fill="#171717"/>
  <circle cx="560" cy="495" r="438" fill="url(#glow)" opacity=".7"/>
  <g stroke="#C9A86A" stroke-width="3" opacity=".75"><path d="M524 881C517 641 345 489 210 319"/><path d="M524 881C561 640 719 441 831 292"/><path d="M524 881C490 661 519 384 554 187"/><path d="M524 881C441 662 282 574 139 513"/><path d="M524 881C646 673 791 615 925 551"/></g>
  <g fill="#F7F2E9"><path d="M164 316c-56-94 49-170 94-82 59-85 154 3 90 88-50 64-152 70-184-6Z"/><path d="M680 291c-47-88 48-147 88-71 54-77 137 6 79 79-46 57-133 58-167-8Z"/><path d="M291 518c-48-76 38-143 78-76 45-66 126 6 70 72-40 48-117 58-148 4Z"/><path d="M669 531c-43-80 50-132 84-61 51-63 125 20 61 81-49 46-120 40-145-20Z"/><path d="M430 366c-56-96 48-163 93-78 58-80 146 11 80 87-48 57-140 59-173-9Z"/></g>
  <g fill="#6C2235"><circle cx="227" cy="271" r="50"/><circle cx="753" cy="236" r="46"/><circle cx="353" cy="469" r="45"/><circle cx="739" cy="493" r="46"/><circle cx="521" cy="322" r="55"/></g>
  <path d="M342 718 714 718 569 918 486 918 342 718Z" fill="#0B0B0B" stroke="#C9A86A" stroke-width="4"/>
  <path d="M409 758h232" stroke="#E2C58B" stroke-width="12" stroke-linecap="round"/><circle cx="525" cy="758" r="29" fill="#C9A86A"/>
  <defs><radialGradient id="glow" cx="0" cy="0" r="1" gradientTransform="translate(560 460) rotate(90) scale(480)" gradientUnits="userSpaceOnUse"><stop stop-color="#54442F"/><stop offset="1" stop-color="#171717" stop-opacity="0"/></radialGradient></defs>
</svg>
